<?xml version="1.0" encoding="UTF-8"?><svg xmlns="http://www.w3.org/2000/svg" xmlns:xlink="http://www.w3.org/1999/xlink" width="375" zoomAndPan="magnify" viewBox="0 0 375 374.999991" height="374.999991" preserveAspectRatio="xMidYMid meet" version="1.0"><path fill="rgb(87.838745%, 96.078491%, 99.21875%)" d="M 187.515625 0.0078125 C 156.652344 0.0078125 127.5625 7.507812 101.886719 20.71875 L 101.886719 354.285156 C 127.5625 367.492188 156.652344 375 187.515625 375 C 218.375 375 247.46875 367.492188 273.144531 354.28125 L 273.144531 20.722656 C 247.46875 7.511719 218.375 0.0078125 187.515625 0.0078125 " fill-opacity="1" fill-rule="nonzero"/><path fill="rgb(17.248535%, 21.179199%, 42.349243%)" d="M 101.886719 20.722656 C 41.414062 51.832031 0.0195312 114.8125 0.0195312 187.5 C 0.0195312 260.1875 41.414062 323.171875 101.886719 354.285156 C 105.753906 356.277344 109.707031 358.117188 113.726562 359.84375 L 113.726562 15.164062 C 109.707031 16.886719 105.753906 18.730469 101.886719 20.722656 " fill-opacity="1" fill-rule="nonzero"/><path fill="rgb(92.939758%, 9.799194%, 18.03894%)" d="M 273.144531 20.722656 C 268.851562 18.511719 264.453125 16.480469 259.976562 14.597656 L 259.976562 360.40625 C 264.453125 358.523438 268.851562 356.488281 273.144531 354.28125 C 333.617188 323.167969 375.007812 260.1875 375.007812 187.5 C 375.007812 114.8125 333.617188 51.835938 273.144531 20.722656 " fill-opacity="1" fill-rule="nonzero"/></svg>