<?xml version="1.0" encoding="UTF-8"?><svg xmlns="http://www.w3.org/2000/svg" xmlns:xlink="http://www.w3.org/1999/xlink" width="375" zoomAndPan="magnify" viewBox="0 0 375 374.999991" height="374.999991" preserveAspectRatio="xMidYMid meet" version="1.0"><path fill="rgb(63.919067%, 64.709473%, 64.309692%)" d="M 187.5 -0.0078125 C 84.109375 -0.0078125 -0.0078125 84.105469 -0.0078125 187.496094 C -0.0078125 290.890625 84.109375 375.003906 187.5 375.003906 C 290.890625 375.003906 375.007812 290.890625 375.007812 187.496094 C 375.007812 84.105469 290.890625 -0.0078125 187.5 -0.0078125 " fill-opacity="1" fill-rule="nonzero"/><path fill="rgb(90.589905%, 12.939453%, 14.898682%)" d="M 187.5 9.625 C 110.054688 9.625 44.183594 59.128906 19.761719 128.207031 L 355.238281 128.207031 C 330.820312 59.128906 264.949219 9.625 187.5 9.625 " fill-opacity="1" fill-rule="nonzero"/><path fill="rgb(96.859741%, 81.568909%, 12.548828%)" d="M 365.375 187.496094 C 365.375 166.703125 361.796875 146.753906 355.238281 128.207031 L 19.761719 128.207031 C 13.207031 146.753906 9.625 166.703125 9.625 187.496094 C 9.625 208.296875 13.207031 228.242188 19.757812 246.796875 L 355.242188 246.796875 C 361.796875 228.242188 365.375 208.296875 365.375 187.496094 " fill-opacity="1" fill-rule="nonzero"/><path fill="rgb(90.589905%, 12.939453%, 14.898682%)" d="M 355.242188 246.796875 L 19.757812 246.796875 C 44.179688 315.875 110.054688 365.375 187.5 365.375 C 264.949219 365.375 330.820312 315.875 355.242188 246.796875 " fill-opacity="1" fill-rule="nonzero"/><path fill="rgb(100%, 100%, 100%)" d="M 66.820312 166.917969 L 66.820312 217.671875 C 66.820312 233.769531 79.863281 236.765625 95.964844 236.765625 C 112.0625 236.765625 125.117188 233.769531 125.117188 217.671875 L 125.117188 166.917969 L 66.820312 166.917969 " fill-opacity="1" fill-rule="nonzero"/><path fill="rgb(95.289612%, 73.329163%, 10.978699%)" d="M 96.730469 201.855469 L 66.820312 201.855469 L 66.820312 217.671875 C 66.820312 233.769531 79.863281 236.765625 95.964844 236.765625 C 96.226562 236.765625 96.472656 236.757812 96.730469 236.757812 L 96.730469 201.855469 " fill-opacity="1" fill-rule="nonzero"/><path fill="rgb(67.059326%, 10.978699%, 14.898682%)" d="M 96.730469 201.660156 L 96.730469 236.757812 C 112.472656 236.65625 125.117188 233.511719 125.117188 217.671875 L 125.117188 201.660156 L 96.730469 201.660156 " fill-opacity="1" fill-rule="nonzero"/><path fill="rgb(67.059326%, 10.978699%, 14.898682%)" d="M 96.730469 166.917969 L 66.820312 166.917969 L 66.820312 202.046875 L 96.730469 202.046875 L 96.730469 166.917969 " fill-opacity="1" fill-rule="nonzero"/><path fill="rgb(67.059326%, 10.978699%, 14.898682%)" d="M 71.105469 230.0625 C 71.902344 230.898438 72.785156 231.648438 73.765625 232.304688 L 73.765625 201.855469 L 71.105469 201.855469 L 71.105469 230.0625 " fill-opacity="1" fill-rule="nonzero"/><path fill="rgb(67.059326%, 10.978699%, 14.898682%)" d="M 80.011719 201.855469 L 77.355469 201.855469 L 77.355469 234.164062 C 78.199219 234.507812 79.089844 234.789062 80.011719 235.054688 L 80.011719 201.855469 " fill-opacity="1" fill-rule="nonzero"/><path fill="rgb(67.059326%, 10.978699%, 14.898682%)" d="M 86.269531 201.855469 L 83.609375 201.855469 L 83.609375 235.863281 C 84.46875 236.011719 85.351562 236.144531 86.269531 236.25 L 86.269531 201.855469 " fill-opacity="1" fill-rule="nonzero"/><path fill="rgb(67.059326%, 10.978699%, 14.898682%)" d="M 92.515625 201.855469 L 89.847656 201.855469 L 89.847656 236.585938 C 90.726562 236.640625 91.605469 236.675781 92.515625 236.707031 L 92.515625 201.855469 " fill-opacity="1" fill-rule="nonzero"/><path fill="rgb(95.289612%, 73.329163%, 10.978699%)" d="M 118.6875 221.289062 C 118.6875 225.578125 115.210938 226.371094 110.925781 226.371094 C 106.636719 226.371094 103.164062 225.578125 103.164062 221.289062 L 103.164062 207.785156 L 118.6875 207.785156 Z M 101.613281 205.917969 L 101.613281 222.132812 C 101.613281 227.273438 105.785156 228.238281 110.925781 228.238281 C 116.066406 228.238281 120.238281 227.273438 120.238281 222.132812 L 120.238281 205.917969 L 101.613281 205.917969 " fill-opacity="1" fill-rule="nonzero"/><path fill="rgb(67.059326%, 10.978699%, 14.898682%)" d="M 107.003906 201.660156 C 107.003906 207.339844 102.40625 211.933594 96.730469 211.933594 C 91.0625 211.933594 86.464844 207.339844 86.464844 201.660156 C 86.464844 195.996094 91.0625 191.394531 96.730469 191.394531 C 102.40625 191.394531 107.003906 195.996094 107.003906 201.660156 " fill-opacity="1" fill-rule="nonzero"/><path fill="rgb(21.569824%, 36.859131%, 69.018555%)" d="M 104.449219 201.660156 C 104.449219 205.925781 100.996094 209.382812 96.730469 209.382812 C 92.476562 209.382812 89.019531 205.925781 89.019531 201.660156 C 89.019531 197.402344 92.476562 193.953125 96.730469 193.953125 C 100.996094 193.953125 104.449219 197.402344 104.449219 201.660156 " fill-opacity="1" fill-rule="nonzero"/><path fill="rgb(95.289612%, 73.329163%, 10.978699%)" d="M 111.691406 228.195312 L 110.15625 228.195312 L 110.15625 205.917969 L 111.691406 205.917969 L 111.691406 228.195312 " fill-opacity="1" fill-rule="nonzero"/><path fill="rgb(95.289612%, 73.329163%, 10.978699%)" d="M 101.613281 217.828125 L 101.613281 216.285156 L 120.238281 216.285156 L 120.238281 217.828125 L 101.613281 217.828125 " fill-opacity="1" fill-rule="nonzero"/><path fill="rgb(95.289612%, 73.329163%, 10.978699%)" d="M 119.347656 224.382812 L 118.25 225.480469 L 102.5 209.734375 L 103.59375 208.632812 L 119.347656 224.382812 " fill-opacity="1" fill-rule="nonzero"/><path fill="rgb(95.289612%, 73.329163%, 10.978699%)" d="M 102.5 224.382812 L 103.59375 225.480469 L 119.347656 209.734375 L 118.25 208.632812 L 102.5 224.382812 " fill-opacity="1" fill-rule="nonzero"/><path fill="rgb(21.569824%, 36.859131%, 69.018555%)" d="M 112.792969 217.386719 C 112.792969 218.410156 111.953125 219.246094 110.925781 219.246094 C 109.894531 219.246094 109.066406 218.410156 109.066406 217.386719 C 109.066406 216.355469 109.894531 215.519531 110.925781 215.519531 C 111.953125 215.519531 112.792969 216.355469 112.792969 217.386719 " fill-opacity="1" fill-rule="nonzero"/><path fill="rgb(100%, 100%, 100%)" d="M 96.730469 228.238281 C 94.613281 236.484375 80.011719 235.054688 80.011719 235.054688 L 80.027344 235.058594 C 83.890625 236.148438 88.386719 236.617188 93.226562 236.726562 L 89.027344 235.523438 C 89.027344 235.523438 95.753906 236.179688 96.730469 232.378906 C 97.710938 236.179688 104.445312 235.523438 104.445312 235.523438 L 100.472656 236.660156 C 104.515625 236.488281 108.265625 236.039062 111.578125 235.144531 C 107.574219 235.207031 98.386719 234.652344 96.730469 228.238281 " fill-opacity="1" fill-rule="nonzero"/><path fill="rgb(27.059937%, 51.368713%, 43.528748%)" d="M 96.730469 232.378906 C 95.753906 236.179688 89.027344 235.523438 89.027344 235.523438 L 93.226562 236.726562 C 94.128906 236.757812 95.042969 236.765625 95.964844 236.765625 C 97.5 236.765625 99.003906 236.726562 100.472656 236.660156 L 104.445312 235.523438 C 104.445312 235.523438 97.710938 236.179688 96.730469 232.378906 " fill-opacity="1" fill-rule="nonzero"/><path fill="rgb(95.289612%, 73.329163%, 10.978699%)" d="M 85.617188 191.738281 L 85.617188 178.496094 L 80.527344 178.496094 L 80.527344 173.914062 L 79.503906 173.914062 L 79.503906 178.496094 L 74.410156 178.496094 L 74.410156 191.738281 L 71.105469 191.738281 L 71.105469 195.050781 L 88.929688 195.050781 L 88.929688 191.738281 L 85.617188 191.738281 " fill-opacity="1" fill-rule="nonzero"/><path fill="rgb(90.19928%, 29.798889%, 67.059326%)" d="M 106.785156 182.761719 L 101.574219 183.691406 L 101.574219 188.164062 L 107.746094 185.460938 L 110.4375 187.007812 L 109.28125 190.859375 L 106.007812 193.175781 L 107.746094 195.488281 L 110.4375 194.136719 L 111.792969 189.125 L 114.496094 194.335938 L 114.496094 197.613281 L 118.160156 197.613281 L 117.195312 189.125 L 120.667969 186.808594 L 120.667969 182.761719 L 119.117188 179.675781 L 121.824219 177.550781 L 120.085938 173.308594 L 118.546875 176.589844 L 118.929688 183.691406 L 118.160156 186.808594 L 115.652344 187.390625 C 115.652344 187.390625 113.722656 186.234375 113.917969 185.460938 C 114.109375 184.691406 114.878906 181.414062 114.878906 181.414062 C 114.878906 181.414062 116.035156 178.132812 115.84375 177.550781 C 115.652344 176.972656 114.496094 173.308594 114.496094 173.308594 L 107.746094 174.273438 L 110.054688 177.550781 C 110.054688 177.550781 110.832031 180.640625 110.246094 180.640625 C 109.675781 180.640625 107.355469 180.253906 106.585938 179.863281 C 105.816406 179.484375 103.6875 173.308594 103.6875 173.308594 L 100.027344 174.273438 L 100.027344 178.519531 L 103.496094 179.289062 L 106.785156 182.761719 " fill-opacity="1" fill-rule="nonzero"/><path fill="rgb(78.42865%, 10.978699%, 17.649841%)" d="M 126.773438 151.652344 C 126.773438 156.488281 112.980469 160.402344 95.964844 160.402344 C 78.945312 160.402344 65.15625 156.488281 65.15625 151.652344 C 65.15625 146.824219 78.945312 142.902344 95.964844 142.902344 C 112.980469 142.902344 126.773438 146.824219 126.773438 151.652344 " fill-opacity="1" fill-rule="nonzero"/><path fill="rgb(57.249451%, 45.489502%, 9.799194%)" d="M 116.5 163.152344 L 75.421875 163.152344 L 75.421875 157.660156 L 116.5 157.660156 L 116.5 163.152344 " fill-opacity="1" fill-rule="nonzero"/><path fill="rgb(78.42865%, 10.978699%, 17.649841%)" d="M 115.3125 166.917969 L 76.617188 166.917969 L 76.617188 163.152344 L 115.3125 163.152344 L 115.3125 166.917969 " fill-opacity="1" fill-rule="nonzero"/><path fill="rgb(57.249451%, 45.489502%, 9.799194%)" d="M 94.582031 160.402344 L 97.351562 160.402344 L 97.351562 125.546875 L 94.582031 125.546875 Z M 94.582031 160.402344 " fill-opacity="1" fill-rule="nonzero"/><path fill="rgb(100%, 100%, 100%)" d="M 56.808594 170.800781 L 46.976562 170.800781 L 46.976562 224.324219 L 56.808594 224.324219 L 56.808594 170.800781 " fill-opacity="1" fill-rule="nonzero"/><path fill="rgb(75.289917%, 69.018555%, 9.408569%)" d="M 60.136719 168.78125 L 43.648438 168.78125 L 43.648438 165.023438 L 60.136719 165.023438 L 60.136719 168.78125 " fill-opacity="1" fill-rule="nonzero"/><path fill="rgb(75.289917%, 69.018555%, 9.408569%)" d="M 57.535156 172.6875 L 46.257812 172.6875 L 46.257812 168.921875 L 57.535156 168.921875 L 57.535156 172.6875 " fill-opacity="1" fill-rule="nonzero"/><path fill="rgb(75.289917%, 69.018555%, 9.408569%)" d="M 43.648438 226.351562 L 60.136719 226.351562 L 60.136719 230.109375 L 43.648438 230.109375 L 43.648438 226.351562 " fill-opacity="1" fill-rule="nonzero"/><path fill="rgb(75.289917%, 69.018555%, 9.408569%)" d="M 46.257812 222.441406 L 57.535156 222.441406 L 57.535156 226.203125 L 46.257812 226.203125 L 46.257812 222.441406 " fill-opacity="1" fill-rule="nonzero"/><path fill="rgb(75.289917%, 69.018555%, 9.408569%)" d="M 61.953125 236.765625 L 41.824219 236.765625 L 41.824219 228.226562 L 61.953125 228.226562 L 61.953125 236.765625 " fill-opacity="1" fill-rule="nonzero"/><path fill="rgb(15.689087%, 32.548523%, 64.309692%)" d="M 59.910156 235.027344 L 43.878906 235.027344 L 43.878906 228.226562 L 59.910156 228.226562 L 59.910156 235.027344 " fill-opacity="1" fill-rule="nonzero"/><path fill="rgb(67.059326%, 10.978699%, 14.898682%)" d="M 67.449219 190.476562 L 41.824219 190.476562 L 41.824219 184.398438 L 67.449219 184.398438 L 67.449219 190.476562 " fill-opacity="1" fill-rule="nonzero"/><path fill="rgb(67.059326%, 10.978699%, 14.898682%)" d="M 41.824219 184.398438 C 41.824219 184.398438 33.441406 198.285156 46.976562 197.5625 L 46.976562 184.398438 L 41.824219 184.398438 " fill-opacity="1" fill-rule="nonzero"/><path fill="rgb(67.059326%, 10.978699%, 14.898682%)" d="M 56.808594 193.953125 C 56.808594 193.953125 63.46875 197.996094 60.136719 201.761719 C 56.808594 205.523438 40.78125 208.121094 43.878906 212.171875 C 46.976562 216.230469 36.683594 210.4375 41.824219 204.941406 C 46.976562 199.445312 56.003906 200.027344 56.808594 193.953125 " fill-opacity="1" fill-rule="nonzero"/><path fill="rgb(78.42865%, 10.978699%, 17.649841%)" d="M 60.242188 160.832031 C 60.242188 162.144531 56.503906 163.203125 51.890625 163.203125 C 47.28125 163.203125 43.546875 162.144531 43.546875 160.832031 C 43.546875 159.527344 47.28125 158.460938 51.890625 158.460938 C 56.503906 158.460938 60.242188 159.527344 60.242188 160.832031 " fill-opacity="1" fill-rule="nonzero"/><path fill="rgb(57.249451%, 45.489502%, 9.799194%)" d="M 57.460938 163.945312 L 46.332031 163.945312 L 46.332031 162.460938 L 57.460938 162.460938 L 57.460938 163.945312 " fill-opacity="1" fill-rule="nonzero"/><path fill="rgb(78.42865%, 10.978699%, 17.649841%)" d="M 57.136719 164.964844 L 46.652344 164.964844 L 46.652344 163.945312 L 57.136719 163.945312 L 57.136719 164.964844 " fill-opacity="1" fill-rule="nonzero"/><path fill="rgb(57.249451%, 45.489502%, 9.799194%)" d="M 52.265625 153.757812 L 51.515625 153.757812 L 51.515625 163.203125 L 52.265625 163.203125 L 52.265625 153.757812 " fill-opacity="1" fill-rule="nonzero"/><path fill="rgb(100%, 100%, 100%)" d="M 135.121094 170.800781 L 144.953125 170.800781 L 144.953125 224.324219 L 135.121094 224.324219 L 135.121094 170.800781 " fill-opacity="1" fill-rule="nonzero"/><path fill="rgb(75.289917%, 69.018555%, 9.408569%)" d="M 131.796875 168.78125 L 148.285156 168.78125 L 148.285156 165.023438 L 131.796875 165.023438 L 131.796875 168.78125 " fill-opacity="1" fill-rule="nonzero"/><path fill="rgb(75.289917%, 69.018555%, 9.408569%)" d="M 134.394531 172.6875 L 145.675781 172.6875 L 145.675781 168.921875 L 134.394531 168.921875 L 134.394531 172.6875 " fill-opacity="1" fill-rule="nonzero"/><path fill="rgb(75.289917%, 69.018555%, 9.408569%)" d="M 148.285156 226.351562 L 131.796875 226.351562 L 131.796875 230.109375 L 148.285156 230.109375 L 148.285156 226.351562 " fill-opacity="1" fill-rule="nonzero"/><path fill="rgb(75.289917%, 69.018555%, 9.408569%)" d="M 145.675781 222.441406 L 134.394531 222.441406 L 134.394531 226.203125 L 145.675781 226.203125 L 145.675781 222.441406 " fill-opacity="1" fill-rule="nonzero"/><path fill="rgb(75.289917%, 69.018555%, 9.408569%)" d="M 129.96875 236.765625 L 150.09375 236.765625 L 150.09375 228.226562 L 129.96875 228.226562 L 129.96875 236.765625 " fill-opacity="1" fill-rule="nonzero"/><path fill="rgb(15.689087%, 32.548523%, 64.309692%)" d="M 132.019531 235.027344 L 148.054688 235.027344 L 148.054688 228.226562 L 132.019531 228.226562 L 132.019531 235.027344 " fill-opacity="1" fill-rule="nonzero"/><path fill="rgb(67.059326%, 10.978699%, 14.898682%)" d="M 124.476562 190.476562 L 150.09375 190.476562 L 150.09375 184.398438 L 124.476562 184.398438 L 124.476562 190.476562 " fill-opacity="1" fill-rule="nonzero"/><path fill="rgb(67.059326%, 10.978699%, 14.898682%)" d="M 150.09375 184.398438 C 150.09375 184.398438 158.488281 198.285156 144.953125 197.5625 L 144.953125 184.398438 L 150.09375 184.398438 " fill-opacity="1" fill-rule="nonzero"/><path fill="rgb(67.059326%, 10.978699%, 14.898682%)" d="M 135.121094 193.953125 C 135.121094 193.953125 128.46875 197.996094 131.796875 201.761719 C 135.121094 205.523438 151.152344 208.121094 148.054688 212.171875 C 144.953125 216.230469 155.246094 210.4375 150.09375 204.941406 C 144.953125 199.445312 135.929688 200.027344 135.121094 193.953125 " fill-opacity="1" fill-rule="nonzero"/><path fill="rgb(78.42865%, 10.978699%, 17.649841%)" d="M 131.695312 160.832031 C 131.695312 162.144531 135.425781 163.203125 140.035156 163.203125 C 144.640625 163.203125 148.378906 162.144531 148.378906 160.832031 C 148.378906 159.527344 144.640625 158.460938 140.035156 158.460938 C 135.425781 158.460938 131.695312 159.527344 131.695312 160.832031 " fill-opacity="1" fill-rule="nonzero"/><path fill="rgb(57.249451%, 45.489502%, 9.799194%)" d="M 134.476562 163.945312 L 145.597656 163.945312 L 145.597656 162.460938 L 134.476562 162.460938 L 134.476562 163.945312 " fill-opacity="1" fill-rule="nonzero"/><path fill="rgb(78.42865%, 10.978699%, 17.649841%)" d="M 134.792969 164.964844 L 145.273438 164.964844 L 145.273438 163.945312 L 134.792969 163.945312 L 134.792969 164.964844 " fill-opacity="1" fill-rule="nonzero"/><path fill="rgb(57.249451%, 45.489502%, 9.799194%)" d="M 139.664062 153.757812 L 140.410156 153.757812 L 140.410156 163.203125 L 139.664062 163.203125 L 139.664062 153.757812 " fill-opacity="1" fill-rule="nonzero"/><path fill="rgb(92.549133%, 22.349548%, 27.059937%)" d="M 110.792969 128.207031 L 97.351562 128.207031 L 97.351562 125.546875 L 94.582031 125.546875 L 94.582031 128.207031 L 52.746094 128.207031 C 51.894531 124.050781 51.929688 119.636719 53.007812 115.238281 C 56.328125 101.730469 68.421875 92.691406 81.746094 92.691406 C 83.964844 92.691406 86.226562 92.945312 88.480469 93.46875 C 84.585938 85.058594 83.394531 75.34375 85.773438 65.652344 C 90.519531 46.332031 107.808594 33.398438 126.851562 33.398438 C 130.195312 33.398438 133.597656 33.792969 136.988281 34.628906 C 159.691406 40.195312 173.582031 63.128906 168.007812 85.835938 C 163.265625 105.152344 145.96875 118.089844 126.929688 118.089844 C 123.585938 118.089844 120.191406 117.691406 116.804688 116.859375 C 114.5625 116.3125 112.445312 115.550781 110.398438 114.6875 C 111.546875 118.976562 111.738281 123.589844 110.792969 128.207031 " fill-opacity="1" fill-rule="nonzero"/><path fill="rgb(96.859741%, 85.488892%, 23.139954%)" d="M 67.53125 148.277344 C 59.839844 144.0625 54.472656 136.644531 52.746094 128.207031 L 94.582031 128.207031 L 94.582031 142.910156 C 82.378906 143.0625 72.019531 145.230469 67.53125 148.277344 M 102.84375 143.121094 C 101.066406 143.007812 99.230469 142.9375 97.351562 142.910156 L 97.351562 128.207031 L 110.792969 128.207031 C 110.71875 128.589844 110.628906 128.976562 110.535156 129.359375 C 109.210938 134.757812 106.488281 139.441406 102.84375 143.121094 " fill-opacity="1" fill-rule="nonzero"/><path fill="rgb(82.348633%, 18.03894%, 31.759644%)" d="M 81.796875 151.921875 C 79.460938 151.921875 77.085938 151.644531 74.714844 151.066406 C 72.152344 150.433594 69.746094 149.488281 67.53125 148.277344 C 72.019531 145.230469 82.378906 143.0625 94.582031 142.910156 L 94.582031 149.007812 C 90.652344 150.894531 86.296875 151.921875 81.796875 151.921875 M 97.351562 147.492188 L 97.351562 142.910156 C 99.230469 142.9375 101.066406 143.007812 102.84375 143.121094 C 101.191406 144.792969 99.339844 146.257812 97.351562 147.492188 " fill-opacity="1" fill-rule="nonzero"/><path fill="rgb(65.098572%, 56.469727%, 21.179199%)" d="M 94.582031 149.007812 L 94.582031 125.546875 L 97.351562 125.546875 L 97.351562 147.492188 C 96.457031 148.042969 95.53125 148.550781 94.582031 149.007812 " fill-opacity="1" fill-rule="nonzero"/><path fill="rgb(53.329468%, 54.508972%, 54.899597%)" d="M 186.789062 367.636719 C 133.925781 367.636719 86.417969 344.449219 53.65625 307.597656 C 54.953125 308.066406 56.253906 308.523438 57.5625 308.960938 C 90.019531 343.679688 136.21875 365.375 187.5 365.375 C 264.949219 365.375 330.820312 315.875 355.242188 246.796875 L 256.527344 246.796875 L 355.242188 246.796875 C 361.796875 228.242188 365.375 208.296875 365.375 187.496094 C 365.375 166.703125 361.796875 146.753906 355.238281 128.207031 L 292.851562 128.207031 L 355.238281 128.207031 C 337.972656 79.359375 299.980469 40.304688 251.828125 21.617188 C 250.324219 19.789062 248.789062 17.988281 247.21875 16.21875 C 316.332031 41.289062 365.769531 108.117188 365.769531 186.632812 C 365.769531 286.597656 285.632812 367.636719 186.789062 367.636719 " fill-opacity="1" fill-rule="nonzero"/><path fill="rgb(76.469421%, 11.759949%, 14.509583%)" d="M 355.238281 128.207031 L 292.851562 128.207031 C 290.894531 87.769531 275.808594 50.820312 251.828125 21.617188 C 299.980469 40.304688 337.972656 79.359375 355.238281 128.207031 " fill-opacity="1" fill-rule="nonzero"/><path fill="rgb(79.998779%, 68.629456%, 12.159729%)" d="M 355.242188 246.796875 L 256.527344 246.796875 C 279.453125 216.371094 293.066406 178.386719 293.066406 137.1875 C 293.066406 134.175781 292.996094 131.183594 292.851562 128.207031 L 355.238281 128.207031 C 361.796875 146.753906 365.375 166.703125 365.375 187.496094 C 365.375 208.296875 361.796875 228.242188 355.242188 246.796875 " fill-opacity="1" fill-rule="nonzero"/><path fill="rgb(76.469421%, 11.759949%, 14.509583%)" d="M 187.5 365.375 C 136.21875 365.375 90.019531 343.679688 57.5625 308.960938 C 75.332031 314.941406 94.328125 318.179688 114.089844 318.179688 C 172.191406 318.179688 223.832031 290.179688 256.527344 246.796875 L 355.242188 246.796875 C 330.820312 315.875 264.949219 365.375 187.5 365.375 " fill-opacity="1" fill-rule="nonzero"/></svg>